<svg xmlns="http://www.w3.org/2000/svg" xmlns:xlink="http://www.w3.org/1999/xlink" width="50" zoomAndPan="magnify" viewBox="0 0 375 374.999991" height="50" preserveAspectRatio="xMidYMid meet" version="1.0"><rect x="-37.5" width="50" fill="#ffffff" y="-37.499999" height="449.999989" fill-opacity="1"/><rect x="-37.5" width="50" fill="#ffffff" y="-37.499999" height="449.999989" fill-opacity="1"/><rect x="-37.5" width="450" fill="#ffffff" y="-37.499999" height="449.999989" fill-opacity="1"/><path fill="#7d8494" d="M 123.023438 90.011719 C 128.132812 89.292969 155.363281 86.242188 184.929688 97.082031 C 185.804688 97.402344 186.679688 97.726562 187.554688 98.074219 C 192.984375 100.203125 197.953125 102.5625 202.332031 104.644531 C 206.5625 106.65625 210.554688 108.554688 214.28125 109.917969 C 221.386719 112.523438 232.121094 116.460938 261.046875 101.429688 C 267.925781 97.679688 276.9375 97.023438 284.738281 99.882812 C 291.199219 102.25 302.464844 109.050781 305.324219 127.996094 C 310.015625 160.160156 303.277344 225.101562 244.3125 241.445312 C 194.402344 255.207031 190.515625 263.066406 191.269531 274.078125 C 196.625 311.90625 226.945312 333.351562 227.25 333.5625 L 244.589844 345.597656 C 289.117188 330.191406 326.621094 295.644531 344.089844 247.945312 C 374.945312 163.707031 331.691406 70.398438 247.476562 39.53125 C 168.378906 10.546875 81.289062 46.957031 45.429688 121.28125 C 65.738281 104.09375 91.691406 93.585938 123.023438 90.011719 Z M 123.023438 90.011719 " fill-opacity="1" fill-rule="nonzero"/><path fill="#d5392e" d="M 252.84375 184.570312 C 265.738281 185.097656 274.578125 178.746094 278.8125 174.765625 C 283.855469 156.371094 282.480469 138.035156 281.539062 131.582031 C 279.605469 118.734375 272.148438 122.789062 272.148438 122.789062 C 221.441406 149.144531 205.617188 131 178.753906 120.476562 C 151.953125 109.933594 126.09375 113.878906 126.09375 113.878906 C 83.457031 118.660156 58.890625 136.957031 43.722656 158.539062 C 0.0664062 220.648438 19.386719 279.988281 19.386719 279.988281 C 60.234375 285.902344 94.417969 266.007812 107.574219 248.867188 C 129.007812 221.046875 123.667969 179.015625 123.191406 175.824219 C 135.042969 212.859375 128.609375 239.265625 118.277344 256.929688 C 118.277344 256.929688 97.351562 289.25 67.464844 296.832031 C 67.464844 296.832031 117.722656 364.558594 213.679688 353.441406 C 213.679688 353.441406 174.015625 326.753906 167.332031 276.621094 C 164.542969 242.136719 193.390625 230.527344 237.890625 218.253906 C 257.753906 212.75 268.984375 199.648438 275.214844 185.132812 C 261.828125 189.4375 252.84375 184.570312 252.84375 184.570312 Z M 202.289062 157.605469 C 200.589844 162.25 195.445312 164.636719 190.800781 162.933594 C 186.15625 161.234375 183.773438 156.085938 185.472656 151.441406 C 187.175781 146.796875 192.320312 144.410156 196.960938 146.113281 C 201.613281 147.8125 204 152.960938 202.289062 157.605469 Z M 202.289062 157.605469 " fill-opacity="1" fill-rule="nonzero"/></svg>